<svg xmlns="http://www.w3.org/2000/svg" viewBox="0 0 512 512">
  <defs>
    <linearGradient id="goldGradient" x1="0%" y1="0%" x2="100%" y2="100%">
      <stop offset="0%" stop-color="#FDE08B" />
      <stop offset="50%" stop-color="#D4AF37" />
      <stop offset="100%" stop-color="#997A15" />
    </linearGradient>
  </defs>
  
  <circle cx="256" cy="256" r="230" fill="none" stroke="url(#goldGradient)" stroke-width="16" stroke-dasharray="24 16" />
  
  <path d="M340 140 A 130 130 0 1 0 340 372 A 150 150 0 1 1 340 140 Z" fill="url(#goldGradient)" />
  
  <g transform="translate(256, 256)">
    <polygon points="-15,-15 0,-140 15,-15 140,0 15,15 0,140 -15,15 -140,0" fill="#1C1917" />
    <polygon points="0,0 0,-120 10,-10" fill="url(#goldGradient)" />
    <polygon points="0,0 120,0 10,10" fill="url(#goldGradient)" />
    <polygon points="0,0 0,120 -10,10" fill="url(#goldGradient)" />
    <polygon points="0,0 -120,0 -10,-10" fill="url(#goldGradient)" />
  </g>
  
  <circle cx="256" cy="256" r="16" fill="#FDFBF7" />
</svg>